# xmcd
#
# Track frame offsets:
#	150
#	21432
#	37050
#	55270
#	72502
#	87212
#	100637
#	116212
#	130452
#	150102
#	164645
#	179455
#	194307
#	212387
#
# Disc length: 3093
#
# Revision: 1
# Processed by: cddbd v1.5.1PL0 Copyright (c) Steve Scherf et al.
# Submitted via: VisiTrax 2.9.3.171 - For more info visit www.synapsa.com
# Normalized: r0:DSETVAR1
#
DISCID=c30c130e
DTITLE=Various Artist - Mr Music Country 10-00
DYEAR=1900
DGENRE=
TTITLE0=Doug Sahm - Cowboy Peyton Place
TTITLE1=Tom Russell - Tulare Dust/They're Tearin' The Labor Camps Down
TTITLE2=Kimberly Fox - The Lonely Side
TTITLE3=Ed Burleson - Wide Open Spaces
TTITLE4=Jerry Kilgore - The Real Thing
TTITLE5=Allen Frizzell - Photograph
TTITLE6=Jolie Holliday - Full Moon And Half Truths And Empty Promises
TTITLE7=Gary Stewart - Bedroom Battleground
TTITLE8=Julie Reeves - If Heartaches Had Wings
TTITLE9=Joe Diamond - She's The Rock Of Ages
TTITLE10=Clay Davidson - Come Rain Or Shine
TTITLE11=Myra Pearce - Let's Put Love Back To Work
TTITLE12=Mark David Manders - Three Fingers Tequila
TTITLE13=Charlie Shearer - At The Feet Of God
EXTD=
EXTT0=
EXTT1=
EXTT2=
EXTT3=
EXTT4=
EXTT5=
EXTT6=
EXTT7=
EXTT8=
EXTT9=
EXTT10=
EXTT11=
EXTT12=
EXTT13=
PLAYORDER=
